{"title":"NCIS New Orleans S01 COMPLETE HDTV x264-LOL","uid":15183774,"size":8034027468,"categoryP":"video","categoryS":"tv_shows","magnet":"?xt=urn:btih:7c98758bd0a22e1e964710c65118fdf4dce0b592&amp;dn=NCIS+New+Orleans+S01+COMPLETE+HDTV+x264-LOL&amp;tr=udp%3A%2F%2Ftracker.leechers-paradise.org%3A6969&amp;tr=udp%3A%2F%2Fzer0day.ch%3A1337&amp;tr=udp%3A%2F%2Fopen.demonii.com%3A1337&amp;tr=udp%3A%2F%2Ftracker.coppersurfer.tk%3A6969&amp;tr=udp%3A%2F%2Fexodus.desync.com%3A6969","seeders":23,"leechers":11,"uploader":"LeRalouf","files":46,"time":1467478411,"description":"NCIS: New Orleans season 1 HDTV x264-LOL, COMPLETE\r\n\r\n\r\nGeneral\r\nFormat : MPEG-4\r\nFormat profile : Base Media\r\nCodec ID : isom\r\nFile size : 301 MiB\r\nDuration : 41mn 59s\r\nOverall bit rate mode : Variable\r\nOverall bit rate : 1 003 Kbps\r\nEncoded date : UTC 2014-09-23 17:03:52\r\nTagged date : UTC 2014-09-23 17:03:52\r\n\r\nVideo\r\nID : 1\r\nFormat : AVC\r\nFormat/Info : Advanced Video Codec\r\nFormat profile :   \r\nFormat settings, CABAC : Yes\r\nFormat settings, ReFrames : 5 frames\r\nCodec ID : avc1\r\nCodec ID/Info : Advanced Video Coding\r\nDuration : 41mn 58s\r\nBit rate : 881 Kbps\r\nMaximum bit rate : 5 647 Kbps\r\nWidth : 720 pixels\r\nHeight : 404 pixels\r\nDisplay aspect ratio : 16:9\r\nFrame rate mode : Constant\r\nFrame rate : 23.976 fps\r\nColor space : YUV\r\nChroma subsampling : 4:2:0\r\nBit depth : 8 bits\r\nScan type : Progressive\r\nBits/(Pixel*Frame) : 0.126\r\nStream size : 264 MiB (88%)\r\nWriting library : x264 core 142 r2479 dd79a61\r\nEncoding settings : cabac=1 / ref=5 / deblock=1:1:1 / analyse=0x3:0x133 / me=umh / subme=9 / psy=1 / psy_rd=1.00:0.00 / mixed_ref=1 / me_range=16 / chroma_me=1 / trellis=2 / 8x8dct=1 / cqm=0 / deadzone=21,11 / fast_pskip=0 / chroma_qp_offset=-2 / threads=16 / lookahead_threads=1 / sliced_threads=0 / nr=0 / decimate=1 / interlaced=0 / bluray_compat=0 / constrained_intra=0 / bframes=3 / b_pyramid=2 / b_adapt=2 / b_bias=0 / direct=3 / weightb=1 / open_gop=0 / weightp=2 / keyint=250 / keyint_min=23 / scenecut=40 / intra_refresh=0 / rc_lookahead=60 / rc=crf / mbtree=1 / crf=19.0 / qcomp=0.60 / qpmin=0 / qpmax=69 / qpstep=4 / ip_ratio=1.40 / aq=1:1.00\r\nEncoded date : UTC 2014-09-23 16:29:34\r\nTagged date : UTC 2014-09-23 17:03:53\r\nMatrix coefficients : BT.709-5, BT.1361, IEC 61966-2-4 709, SMPTE RP177\r\n\r\nAudio\r\nID : 2\r\nFormat : AAC\r\nFormat/Info : Advanced Audio Codec\r\nFormat profile : LC\r\nCodec ID : 40\r\nDuration : 41mn 59s\r\nBit rate mode : Variable\r\nBit rate : 118 Kbps\r\nMaximum bit rate : 143 Kbps\r\nChannel(s) : 2 channels\r\nChannel positions : Front: L R\r\nSampling rate : 48.0 KHz\r\nCompression mode : Lossy\r\nDelay relative to video : -95ms\r\nStream size : 35.6 MiB (12%)\r\nEncoded date : UTC 2014-09-23 17:03:53\r\nTagged date : UTC 2014-09-23 17:03:53\r\n\r\n\r\n\r\nThe 1st season, complete, with the correct tags.\r\nEnglish subtitles included (.srt)","torrent":{"xt":"urn:btih:7c98758bd0a22e1e964710c65118fdf4dce0b592","amp;dn":"NCIS+New+Orleans+S01+COMPLETE+HDTV+x264-LOL","amp;tr":["udp%3A%2F%2Ftracker.leechers-paradise.org%3A6969","udp%3A%2F%2Fzer0day.ch%3A1337","udp%3A%2F%2Fopen.demonii.com%3A1337","udp%3A%2F%2Ftracker.coppersurfer.tk%3A6969","udp%3A%2F%2Fexodus.desync.com%3A6969"],"infoHash":"7c98758bd0a22e1e964710c65118fdf4dce0b592","infoHashBuffer":{"type":"Buffer","data":[124,152,117,139,208,162,46,30,150,71,16,198,81,24,253,244,220,224,181,146]},"announce":[],"urlList":[]}}